# xmcd CD database file
#
# Track frame offsets:
#	183
#	20550
#	42298
#	63795
#	83620
#	97850
#	121285
#	143650
#	166043
#	187880
#	206275
#	228530
#	247525
#
# Disc length: 3464 seconds
#
# Revision: 52
# Processed by: cddbd v1.5.2PL0 Copyright (c) Steve Scherf et al.
# Submitted via: CDex 2.21
#
DISCID=8e0d860d
DTITLE=Whitney Houston - The bodyguard
DYEAR=1992
DGENRE=Blues
TTITLE0=I will always love you
TTITLE1=I have nothing
TTITLE2=I'm every woman
TTITLE3=Run for you
TTITLE4=Queen of the night
TTITLE5=Jesus loves me
TTITLE6=Even If my heart would break
TTITLE7=Someday (I m coming back)
TTITLE8=It s gonna be a lovely day
TTITLE9=Peace love and understanding
TTITLE10=Waiting for you
TTITLE11=Trust in me
TTITLE12=Theme From The Bodyguard
EXTD=YEAR: 1992
EXTT0=
EXTT1=
EXTT2=
EXTT3=
EXTT4=
EXTT5=
EXTT6=
EXTT7=
EXTT8=
EXTT9=
EXTT10=
EXTT11=
EXTT12=
PLAYORDER=
